<svg width="167" height="53" viewBox="0 0 167 53" fill="none" xmlns="http://www.w3.org/2000/svg">
<path d="M41.0708 13.6338C47.7169 2.45743 63.6055 0.317553 73.9513 7.35993C74.264 7.57193 74.3235 7.83914 74.1297 8.16155L70.2054 14.7203C70.0028 15.0604 69.7319 15.1266 69.3928 14.9191C62.1587 10.4604 51.912 12.0438 49.0778 20.8484C46.5674 28.6659 49.9433 37.2784 58.2146 39.4382C62.6344 40.5975 67.1334 39.3256 71.1766 36.9405C71.41 36.7992 71.5906 36.85 71.7183 37.0929L75.1603 43.7577C75.2616 43.9564 75.2285 44.1287 75.0612 44.2744C69.7099 49.0709 61.1083 49.8328 54.4489 48.1037C42.1212 44.8906 36.3273 34.2773 38.1573 21.8687C38.5933 18.9183 39.5645 16.1734 41.0708 13.6338Z" fill="white"/>
<path d="M14.3739 32.8862C14.2867 32.7576 14.1695 32.6524 14.0324 32.5797C13.8954 32.5069 13.7427 32.4688 13.5877 32.4688H10.4364C10.1854 32.4688 10.0598 32.5947 10.0598 32.8464L9.99378 48.0309C9.99378 48.2517 9.88367 48.3622 9.66345 48.3622H0.420962C0.200745 48.3622 0.0906372 48.254 0.0906372 48.0375V4.49141C0.0906372 4.29708 0.187532 4.1977 0.381323 4.19329C5.14681 4.08287 9.89028 4.01 14.6117 3.97466C21.9449 3.92166 28.8751 5.89591 30.9033 13.9055C32.6607 20.822 30.1634 26.8905 24.277 30.2892C24.026 30.4305 23.9863 30.6204 24.1581 30.8589L36.5849 48.0177C36.6084 48.0506 36.6226 48.0895 36.6259 48.1299C36.6292 48.1703 36.6215 48.2107 36.6036 48.2465C36.5858 48.2822 36.5585 48.312 36.5249 48.3324C36.4912 48.3529 36.4526 48.3632 36.4132 48.3622H25.0434C24.9821 48.362 24.9218 48.3468 24.8677 48.3179C24.8135 48.2891 24.7673 48.2474 24.7329 48.1965L14.3739 32.8862ZM9.99378 13.4948L10.007 22.889C10.007 22.9523 10.032 23.013 10.0766 23.0577C10.1213 23.1024 10.1817 23.1275 10.2448 23.1275L15.7216 23.1209C17.0722 23.1188 18.3669 22.6563 19.3208 21.835C20.2748 21.0138 20.8099 19.9012 20.8086 18.7418V17.6155C20.808 17.0412 20.6755 16.4727 20.4188 15.9424C20.1622 15.4122 19.7863 14.9306 19.3126 14.5251C18.839 14.1197 18.277 13.7984 17.6585 13.5796C17.0401 13.3607 16.3774 13.2486 15.7084 13.2497L10.2316 13.2563C10.1685 13.2563 10.108 13.2814 10.0634 13.3261C10.0188 13.3709 9.99378 13.4315 9.99378 13.4948Z" fill="white"/>
<path d="M144.68 32.8862C144.593 32.7576 144.476 32.6524 144.339 32.5797C144.202 32.5069 144.049 32.4688 143.894 32.4688H140.743C140.492 32.4688 140.366 32.5947 140.366 32.8464L140.3 48.0309C140.3 48.2517 140.19 48.3622 139.97 48.3622H130.727C130.507 48.3622 130.397 48.254 130.397 48.0375V4.49141C130.397 4.29708 130.494 4.1977 130.688 4.19329C135.453 4.08287 140.197 4.01 144.918 3.97466C152.251 3.92166 159.182 5.89591 161.21 13.9055C162.967 20.822 160.47 26.8905 154.583 30.2892C154.332 30.4305 154.293 30.6204 154.465 30.8589L166.891 48.0177C166.915 48.0506 166.929 48.0895 166.932 48.1299C166.936 48.1703 166.928 48.2107 166.91 48.2465C166.892 48.2822 166.865 48.312 166.831 48.3324C166.798 48.3529 166.759 48.3632 166.72 48.3622H155.35C155.289 48.362 155.228 48.3468 155.174 48.3179C155.12 48.2891 155.074 48.2474 155.039 48.1965L144.68 32.8862ZM140.3 13.4948L140.313 22.889C140.313 22.9523 140.339 23.013 140.383 23.0577C140.428 23.1024 140.488 23.1275 140.551 23.1275L146.028 23.1209C147.379 23.1188 148.673 22.6563 149.627 21.835C150.581 21.0138 151.116 19.9012 151.115 18.7418V17.6155C151.114 17.0412 150.982 16.4727 150.725 15.9424C150.469 15.4122 150.093 14.9306 149.619 14.5251C149.145 14.1197 148.583 13.7984 147.965 13.5796C147.347 13.3607 146.684 13.2486 146.015 13.2497L140.538 13.2563C140.475 13.2563 140.414 13.2814 140.37 13.3261C140.325 13.3709 140.3 13.4315 140.3 13.4948Z" fill="white"/>
<path d="M92.5814 21.2004L108.49 21.1937C108.563 21.1937 108.634 21.1644 108.686 21.1123C108.738 21.0601 108.767 20.9893 108.767 20.9155L108.741 4.247C108.741 4.1732 108.77 4.10243 108.822 4.05025C108.874 3.99807 108.945 3.96875 109.018 3.96875L118.386 3.98863C118.423 3.98863 118.459 3.99582 118.493 4.00981C118.526 4.02379 118.557 4.04428 118.583 4.07012C118.608 4.09596 118.629 4.12663 118.643 4.16039C118.657 4.19415 118.664 4.23033 118.664 4.26688V48.0846C118.664 48.1584 118.635 48.2292 118.583 48.2814C118.531 48.3336 118.46 48.3629 118.386 48.3629L109.025 48.3562C108.951 48.3562 108.881 48.3269 108.829 48.2747C108.777 48.2226 108.747 48.1518 108.747 48.078L108.761 30.7536C108.761 30.7171 108.754 30.6809 108.74 30.6471C108.726 30.6134 108.705 30.5827 108.679 30.5569C108.654 30.531 108.623 30.5105 108.589 30.4966C108.556 30.4826 108.52 30.4754 108.483 30.4754H92.5814C92.5449 30.4754 92.5088 30.4826 92.4752 30.4966C92.4415 30.5105 92.4109 30.531 92.3852 30.5569C92.3594 30.5827 92.339 30.6134 92.325 30.6471C92.3111 30.6809 92.3039 30.7171 92.3039 30.7536L92.2973 48.0846C92.2973 48.1584 92.2681 48.2292 92.216 48.2814C92.164 48.3336 92.0934 48.3629 92.0198 48.3629H82.6848C82.6112 48.3629 82.5407 48.3336 82.4886 48.2814C82.4366 48.2292 82.4074 48.1584 82.4074 48.0846L82.4008 4.26025C82.4008 4.18645 82.43 4.11568 82.482 4.0635C82.5341 4.01132 82.6046 3.982 82.6782 3.982L92.0264 3.97538C92.1 3.97538 92.1706 4.00469 92.2226 4.05687C92.2747 4.10905 92.3039 4.17983 92.3039 4.25363V20.9221C92.3039 20.9959 92.3331 21.0667 92.3852 21.1189C92.4372 21.1711 92.5078 21.2004 92.5814 21.2004Z" fill="white"/>
</svg>
