<svg width="40" height="40" viewBox="0 0 40 40" fill="none" xmlns="http://www.w3.org/2000/svg">
<path d="M25.1217 3.3335H14.895C5.55504 3.3335 3.33337 5.55516 3.33337 14.8785V25.1052C3.33337 34.4435 5.53837 36.6668 14.8784 36.6668H25.105C34.4434 36.6668 36.6667 34.4618 36.6667 25.1218V14.8952C36.6667 5.55516 34.4617 3.3335 25.1217 3.3335ZM30.2434 27.1168H27.8117C26.8917 27.1168 26.615 26.3718 24.965 24.7218C23.525 23.3335 22.9167 23.1602 22.5517 23.1602C22.0484 23.1602 21.91 23.2985 21.91 23.9935V26.1802C21.91 26.7718 21.7184 27.1185 20.1734 27.1185C18.6739 27.0177 17.2199 26.5622 15.931 25.7894C14.6422 25.0166 13.5553 23.9486 12.76 22.6735C10.872 20.3235 9.55828 17.5654 8.92337 14.6185C8.92337 14.2535 9.06171 13.9235 9.75671 13.9235H12.1867C12.8117 13.9235 13.0367 14.2018 13.2817 14.8435C14.4617 18.3168 16.475 21.3368 17.2917 21.3368C17.605 21.3368 17.7417 21.1985 17.7417 20.4168V16.8402C17.6384 15.2085 16.7717 15.0702 16.7717 14.4802C16.7828 14.3245 16.8542 14.1794 16.9705 14.0755C17.0869 13.9715 17.2392 13.917 17.395 13.9235H21.215C21.7367 13.9235 21.91 14.1835 21.91 14.8085V19.6352C21.91 20.1568 22.135 20.3302 22.2917 20.3302C22.605 20.3302 22.8467 20.1568 23.42 19.5835C24.6515 18.0817 25.6576 16.4086 26.4067 14.6168C26.4833 14.4016 26.6282 14.2173 26.8193 14.0921C27.0103 13.967 27.2371 13.9077 27.465 13.9235H29.8967C30.625 13.9235 30.78 14.2885 30.625 14.8085C29.7409 16.7892 28.6468 18.6694 27.3617 20.4168C27.1 20.8168 26.995 21.0252 27.3617 21.4935C27.6034 21.8585 28.455 22.5702 29.0284 23.2468C29.8615 24.0779 30.5534 25.0394 31.0767 26.0935C31.285 26.7702 30.9367 27.1168 30.2434 27.1168Z" fill="#FACC33"/>
<path d="M26.3298 24.7413L26.3298 24.737C26.3298 24.1345 26.8137 23.6464 27.4149 23.6464C28.0203 23.6464 28.5 24.1461 28.5 24.737V28.8788C28.5 29.457 28.2865 30.4513 28.0401 31.4196C27.7879 32.4111 27.4813 33.4481 27.262 34.1491L27.1523 34.4998H26.7848H19.9134H19.6009L19.464 34.2189L19.4518 34.1939C19.1892 33.655 18.7386 32.7305 18.522 32.3615L18.5211 32.36C18.1901 31.7914 17.7485 31.118 17.2722 30.3918C17.2532 30.3628 17.2342 30.3338 17.2151 30.3047C17.215 30.3046 17.2149 30.3044 17.2148 30.3042L17.633 30.0301C16.9728 29.0283 16.2302 27.8994 15.555 26.7107L26.3298 24.7413ZM26.3298 24.7413L26.3448 26.5027C26.3442 26.5607 26.2998 26.6069 26.2372 26.6069C26.1742 26.6069 26.1296 26.5601 26.1296 26.5014V23.7427C26.1296 23.1518 25.6498 22.6521 25.0444 22.6521C24.4432 22.6521 23.9593 23.1402 23.9593 23.7427V25.7089C23.9593 25.7676 23.9147 25.8145 23.8517 25.8145C23.7887 25.8145 23.7441 25.7676 23.7441 25.7089V22.9503C23.7441 22.3593 23.2643 21.8597 22.659 21.8597C22.0577 21.8597 21.5738 22.3477 21.5738 22.9503V24.9239C21.5738 24.9826 21.5293 25.0295 21.4662 25.0295C21.4032 25.0295 21.3586 24.9826 21.3586 24.9239V19.2571C21.3586 18.6662 20.8788 18.1665 20.2735 18.1665C19.6722 18.1665 19.1884 18.6546 19.1884 19.2571V28.0265C19.1884 28.0665 19.1659 28.1048 19.1221 28.1238C19.0674 28.1396 19.0151 28.1196 18.9905 28.0919C18.9905 28.0918 18.9905 28.0918 18.9904 28.0918L16.6431 25.4235L16.6322 25.4112L16.6206 25.3996C16.4179 25.1976 16.1392 25.0893 15.8626 25.0893C15.5819 25.0893 15.3021 25.1953 15.0971 25.3996C14.813 25.6827 14.8089 26.0479 14.8567 26.298C14.9045 26.5487 15.0193 26.7853 15.122 26.9607L26.3298 24.7413Z" fill="white" stroke="#333333"/>
</svg>
