<svg width="60" height="60" viewBox="0 0 60 60" fill="none" xmlns="http://www.w3.org/2000/svg">
<path d="M30.0001 4.99999C16.2001 4.99999 5.00012 16.2 5.00012 30C5.00012 43.8 16.2001 55 30.0001 55C43.8001 55 55.0001 43.8 55.0001 30C55.0001 16.2 43.8001 4.99999 30.0001 4.99999ZM41.6001 22C41.2251 25.95 39.6001 35.55 38.7751 39.975C38.4251 41.85 37.7251 42.475 37.0751 42.55C35.6251 42.675 34.5251 41.6 33.1251 40.675C30.9251 39.225 29.6751 38.325 27.5501 36.925C25.0751 35.3 26.6751 34.4 28.1001 32.95C28.4751 32.575 34.8751 26.75 35.0001 26.225C35.0175 26.1455 35.0152 26.0629 34.9934 25.9845C34.9716 25.9061 34.931 25.8342 34.8751 25.775C34.7251 25.65 34.5251 25.7 34.3501 25.725C34.1251 25.775 30.6251 28.1 23.8001 32.7C22.8001 33.375 21.9001 33.725 21.1001 33.7C20.2001 33.675 18.5001 33.2 17.2251 32.775C15.6501 32.275 14.4251 32 14.5251 31.125C14.5751 30.675 15.2001 30.225 16.3751 29.75C23.6751 26.575 28.5251 24.475 30.9501 23.475C37.9001 20.575 39.3251 20.075 40.2751 20.075C40.4751 20.075 40.9501 20.125 41.2501 20.375C41.5001 20.575 41.5751 20.85 41.6001 21.05C41.5751 21.2 41.6251 21.65 41.6001 22Z" fill="#171717"/>
</svg>
