<svg width="118" height="34" viewBox="0 0 118 34" fill="none" xmlns="http://www.w3.org/2000/svg">
<path d="M32.043 8.74653C36.2962 1.57678 46.4641 0.204029 53.0849 4.72178C53.285 4.85778 53.3231 5.0292 53.1991 5.23603L50.6877 9.44353C50.5581 9.6617 50.3847 9.7042 50.1677 9.57103C45.5382 6.71078 38.9808 7.72653 37.1671 13.3748C35.5605 18.3898 37.7209 23.9148 43.0142 25.3003C45.8426 26.044 48.7218 25.228 51.3092 23.698C51.4586 23.6074 51.5742 23.6399 51.6559 23.7958L53.8586 28.0713C53.9234 28.1988 53.9023 28.3093 53.7952 28.4028C50.3706 31.4798 44.866 31.9685 40.6043 30.8593C32.7152 28.798 29.0074 21.9895 30.1785 14.0293C30.4575 12.1366 31.079 10.3757 32.043 8.74653Z" fill="#171717"/>
<path d="M14.9582 21.097C14.9024 21.0145 14.8274 20.947 14.7397 20.9004C14.652 20.8537 14.5543 20.8293 14.4551 20.8292H12.4384C12.2778 20.8292 12.1974 20.91 12.1974 21.0715L12.1552 30.8125C12.1552 30.9541 12.0847 31.025 11.9438 31.025H6.02902C5.88809 31.025 5.81763 30.9556 5.81763 30.8167V2.88148C5.81763 2.75681 5.87964 2.69306 6.00365 2.69023C9.05333 2.61939 12.0889 2.57264 15.1104 2.54998C19.8033 2.51598 24.2383 3.78248 25.5363 8.92073C26.6609 13.3577 25.0627 17.2507 21.2957 19.431C21.1351 19.5216 21.1097 19.6435 21.2196 19.7965L29.1722 30.804C29.1872 30.8251 29.1963 30.8501 29.1984 30.876C29.2005 30.9019 29.1956 30.9278 29.1842 30.9508C29.1728 30.9737 29.1553 30.9928 29.1338 31.0059C29.1122 31.019 29.0875 31.0256 29.0623 31.025H21.7862C21.7469 31.0249 21.7083 31.0151 21.6737 30.9966C21.6391 30.9781 21.6095 30.9514 21.5875 30.9187L14.9582 21.097ZM12.1552 8.65723L12.1636 14.6837C12.1636 14.7243 12.1796 14.7632 12.2082 14.7919C12.2367 14.8206 12.2754 14.8367 12.3158 14.8367L15.8207 14.8325C16.685 14.8311 17.5135 14.5344 18.124 14.0076C18.7345 13.4808 19.077 12.767 19.0761 12.0232V11.3007C19.0757 10.9323 18.991 10.5676 18.8267 10.2274C18.6624 9.88725 18.4219 9.5783 18.1188 9.31821C17.8157 9.05813 17.456 8.852 17.0602 8.71161C16.6645 8.57121 16.2404 8.4993 15.8122 8.49998L12.3074 8.50423C12.267 8.50423 12.2283 8.52035 12.1997 8.54904C12.1712 8.57773 12.1552 8.61665 12.1552 8.65723Z" fill="#171717"/>
<path d="M98.3481 21.097C98.2923 21.0145 98.2173 20.947 98.1296 20.9003C98.0419 20.8537 97.9442 20.8293 97.845 20.8292H95.8283C95.6677 20.8292 95.5873 20.91 95.5873 21.0715L95.545 30.8125C95.545 30.9541 95.4746 31.025 95.3337 31.025H89.4189C89.278 31.025 89.2075 30.9556 89.2075 30.8167V2.88148C89.2075 2.75681 89.2695 2.69306 89.3935 2.69023C92.4432 2.61939 95.4788 2.57264 98.5003 2.54998C103.193 2.51598 107.628 3.78248 108.926 8.92073C110.051 13.3577 108.453 17.2507 104.686 19.431C104.525 19.5216 104.5 19.6435 104.61 19.7965L112.562 30.804C112.577 30.8251 112.586 30.8501 112.588 30.876C112.59 30.9019 112.585 30.9278 112.574 30.9508C112.563 30.9737 112.545 30.9928 112.524 31.0059C112.502 31.019 112.477 31.0256 112.452 31.025H105.176C105.137 31.0249 105.098 31.0151 105.064 30.9966C105.029 30.9781 104.999 30.9514 104.977 30.9187L98.3481 21.097ZM95.545 8.65723L95.5535 14.6837C95.5535 14.7243 95.5695 14.7632 95.5981 14.7919C95.6266 14.8206 95.6653 14.8367 95.7057 14.8367L99.2106 14.8325C100.075 14.8311 100.903 14.5344 101.514 14.0076C102.124 13.4808 102.467 12.767 102.466 12.0232V11.3007C102.466 10.9323 102.381 10.5676 102.217 10.2274C102.052 9.88725 101.812 9.5783 101.509 9.31821C101.206 9.05813 100.846 8.852 100.45 8.71161C100.054 8.57121 99.6303 8.4993 99.2021 8.49998L95.6973 8.50423C95.6569 8.50423 95.6182 8.52035 95.5896 8.54904C95.5611 8.57773 95.545 8.61665 95.545 8.65723Z" fill="#171717"/>
<path d="M65.0073 13.6L75.1879 13.5958C75.235 13.5958 75.2802 13.577 75.3135 13.5435C75.3468 13.51 75.3655 13.4646 75.3655 13.4173L75.3486 2.72428C75.3486 2.67694 75.3673 2.63153 75.4006 2.59806C75.4339 2.56458 75.479 2.54578 75.5261 2.54578L81.5212 2.55853C81.5445 2.55853 81.5676 2.56314 81.5892 2.57211C81.6107 2.58108 81.6303 2.59423 81.6468 2.61081C81.6633 2.62738 81.6763 2.64706 81.6853 2.66872C81.6942 2.69037 81.6988 2.71359 81.6988 2.73703V30.8465C81.6988 30.8939 81.6801 30.9393 81.6468 30.9727C81.6135 31.0062 81.5683 31.025 81.5212 31.025L75.5304 31.0208C75.4833 31.0208 75.4381 31.002 75.4048 30.9685C75.3715 30.935 75.3528 30.8896 75.3528 30.8423L75.3613 19.7285C75.3613 19.7051 75.3567 19.6819 75.3477 19.6602C75.3388 19.6386 75.3257 19.6189 75.3092 19.6023C75.2928 19.5857 75.2732 19.5726 75.2516 19.5636C75.2301 19.5546 75.207 19.55 75.1837 19.55H65.0073C64.984 19.55 64.9609 19.5546 64.9393 19.5636C64.9178 19.5726 64.8982 19.5857 64.8817 19.6023C64.8652 19.6189 64.8522 19.6386 64.8432 19.6602C64.8343 19.6819 64.8297 19.7051 64.8297 19.7285L64.8255 30.8465C64.8255 30.8939 64.8068 30.9393 64.7735 30.9727C64.7402 31.0062 64.695 31.025 64.6479 31.025H58.674C58.6269 31.025 58.5817 31.0062 58.5484 30.9727C58.5151 30.9393 58.4964 30.8939 58.4964 30.8465L58.4922 2.73278C58.4922 2.68544 58.5109 2.64003 58.5442 2.60656C58.5775 2.57308 58.6227 2.55428 58.6698 2.55428L64.6521 2.55003C64.6992 2.55003 64.7444 2.56883 64.7777 2.60231C64.811 2.63578 64.8297 2.68119 64.8297 2.72853V13.4215C64.8297 13.4689 64.8484 13.5143 64.8817 13.5477C64.915 13.5812 64.9602 13.6 65.0073 13.6Z" fill="#171717"/>
</svg>
