<svg width="302" height="96" viewBox="0 0 302 96" fill="none" xmlns="http://www.w3.org/2000/svg">
<path d="M74.2914 24.6463C86.2762 4.44309 114.928 0.574902 133.584 13.3052C134.148 13.6884 134.255 14.1714 133.906 14.7543L126.829 26.6103C126.464 27.2251 125.975 27.3448 125.364 26.9696C112.319 18.9099 93.8412 21.7721 88.7304 37.6879C84.2033 51.8194 90.291 67.3879 105.207 71.292C113.177 73.3878 121.29 71.0884 128.581 66.7772C129.001 66.5217 129.327 66.6135 129.557 67.0526L135.764 79.1003C135.947 79.4595 135.887 79.7709 135.586 80.0344C125.936 88.7049 110.425 90.0821 98.4159 86.9564C76.1856 81.1481 65.7376 61.9629 69.0376 39.5322C69.8239 34.199 71.5751 29.237 74.2914 24.6463Z" fill="white"/>
<path d="M26.1495 59.4478C25.9922 59.2155 25.7809 59.0253 25.5338 58.8938C25.2867 58.7623 25.0114 58.6935 24.7318 58.6934H19.0491C18.5964 58.6934 18.3701 58.9209 18.3701 59.376L18.2509 86.8245C18.2509 87.2237 18.0524 87.4233 17.6553 87.4233H0.98849C0.591378 87.4233 0.392822 87.2277 0.392822 86.8365V8.11954C0.392822 7.76825 0.567551 7.58861 0.917009 7.58063C9.51051 7.38103 18.0643 7.2493 26.5784 7.18543C39.8022 7.08962 52.2993 10.6584 55.9567 25.1372C59.1257 37.6399 54.6224 48.6097 44.0076 54.7533C43.5549 55.0088 43.4834 55.3521 43.7932 55.7832L66.2022 86.8006C66.2445 86.8602 66.2701 86.9305 66.276 87.0035C66.282 87.0766 66.2681 87.1495 66.236 87.2142C66.2038 87.2788 66.1546 87.3327 66.0939 87.3696C66.0333 87.4065 65.9635 87.4251 65.8925 87.4233H45.3896C45.279 87.423 45.1703 87.3956 45.0727 87.3434C44.9751 87.2912 44.8917 87.2159 44.8296 87.1239L26.1495 59.4478ZM18.2509 24.3947L18.2748 41.3764C18.2748 41.4907 18.32 41.6004 18.4004 41.6812C18.4808 41.7621 18.5899 41.8075 18.7036 41.8075L28.5798 41.7955C31.0154 41.7916 33.35 40.9556 35.0702 39.4711C36.7904 37.9866 37.7555 35.9753 37.7531 33.8795V31.8436C37.7519 30.8054 37.5131 29.7777 37.0502 28.8192C36.5874 27.8607 35.9095 26.9901 35.0555 26.2572C34.2014 25.5243 33.1878 24.9435 32.0726 24.5479C30.9574 24.1523 29.7625 23.9496 28.556 23.9516L18.6798 23.9635C18.5661 23.9635 18.457 24.009 18.3766 24.0898C18.2961 24.1707 18.2509 24.2803 18.2509 24.3947Z" fill="white"/>
<path d="M261.128 59.4478C260.971 59.2155 260.76 59.0253 260.513 58.8938C260.266 58.7623 259.99 58.6935 259.711 58.6934H254.028C253.575 58.6934 253.349 58.9209 253.349 59.376L253.23 86.8245C253.23 87.2237 253.031 87.4233 252.634 87.4233H235.967C235.57 87.4233 235.372 87.2277 235.372 86.8365V8.11954C235.372 7.76825 235.546 7.58861 235.896 7.58063C244.489 7.38103 253.043 7.2493 261.557 7.18543C274.781 7.08962 287.278 10.6584 290.936 25.1372C294.105 37.6399 289.601 48.6097 278.987 54.7533C278.534 55.0088 278.462 55.3521 278.772 55.7832L301.181 86.8006C301.223 86.8602 301.249 86.9305 301.255 87.0035C301.261 87.0766 301.247 87.1495 301.215 87.2142C301.183 87.2788 301.133 87.3327 301.073 87.3696C301.012 87.4065 300.942 87.4251 300.871 87.4233H280.368C280.258 87.423 280.149 87.3956 280.052 87.3434C279.954 87.2912 279.871 87.2159 279.809 87.1239L261.128 59.4478ZM253.23 24.3947L253.254 41.3764C253.254 41.4907 253.299 41.6004 253.379 41.6812C253.46 41.7621 253.569 41.8075 253.683 41.8075L263.559 41.7955C265.994 41.7916 268.329 40.9556 270.049 39.4711C271.769 37.9866 272.734 35.9753 272.732 33.8795V31.8436C272.731 30.8054 272.492 29.7777 272.029 28.8192C271.566 27.8607 270.888 26.9901 270.034 26.2572C269.18 25.5243 268.167 24.9435 267.052 24.5479C265.936 24.1523 264.741 23.9496 263.535 23.9516L253.659 23.9635C253.545 23.9635 253.436 24.009 253.355 24.0898C253.275 24.1707 253.23 24.2803 253.23 24.3947Z" fill="white"/>
<path d="M167.18 38.3226L195.867 38.3106C196 38.3106 196.127 38.2576 196.221 38.1633C196.315 38.0689 196.367 37.941 196.367 37.8076L196.32 7.67648C196.32 7.54308 196.372 7.41514 196.466 7.32081C196.56 7.22649 196.687 7.17349 196.82 7.17349L213.713 7.20942C213.779 7.20942 213.844 7.22243 213.905 7.24771C213.965 7.27298 214.02 7.31003 214.067 7.35674C214.113 7.40345 214.15 7.4589 214.175 7.51992C214.201 7.58095 214.213 7.64635 214.213 7.7124V86.9204C214.213 87.0538 214.161 87.1817 214.067 87.276C213.973 87.3704 213.846 87.4234 213.713 87.4234L196.832 87.4114C196.699 87.4114 196.572 87.3584 196.478 87.2641C196.384 87.1697 196.331 87.0418 196.331 86.9084L196.355 55.5917C196.355 55.5256 196.342 55.4602 196.317 55.3992C196.292 55.3382 196.255 55.2827 196.209 55.236C196.162 55.1893 196.107 55.1523 196.046 55.127C195.986 55.1017 195.921 55.0887 195.855 55.0887H167.18C167.114 55.0887 167.049 55.1017 166.988 55.127C166.927 55.1523 166.872 55.1893 166.826 55.236C166.779 55.2827 166.742 55.3382 166.717 55.3992C166.692 55.4602 166.679 55.5256 166.679 55.5917L166.667 86.9204C166.667 87.0538 166.615 87.1817 166.521 87.276C166.427 87.3704 166.3 87.4234 166.167 87.4234H149.333C149.201 87.4234 149.073 87.3704 148.98 87.276C148.886 87.1817 148.833 87.0538 148.833 86.9204L148.821 7.70043C148.821 7.56703 148.874 7.43909 148.968 7.34476C149.061 7.25044 149.189 7.19744 149.321 7.19744L166.179 7.18547C166.311 7.18547 166.439 7.23846 166.533 7.33279C166.626 7.42712 166.679 7.55505 166.679 7.68845V37.8196C166.679 37.953 166.732 38.0809 166.826 38.1752C166.92 38.2696 167.047 38.3226 167.18 38.3226Z" fill="white"/>
</svg>
