<svg width="60" height="60" viewBox="0 0 60 60" fill="none" xmlns="http://www.w3.org/2000/svg">
<path d="M37.6826 4.99999H22.3426C8.33262 4.99999 5.00012 8.33249 5.00012 22.3175V37.6575C5.00012 51.665 8.30762 55 22.3176 55H37.6576C51.6651 55 55.0001 51.6925 55.0001 37.6825V22.3425C55.0001 8.33249 51.6926 4.99999 37.6826 4.99999ZM45.3651 40.675H41.7176C40.3376 40.675 39.9226 39.5575 37.4476 37.0825C35.2876 35 34.3751 34.74 33.8276 34.74C33.0726 34.74 32.8651 34.9475 32.8651 35.99V39.27C32.8651 40.1575 32.5776 40.6775 30.2601 40.6775C28.011 40.5263 25.8299 39.843 23.8966 38.6838C21.9633 37.5246 20.333 35.9227 19.1401 34.01C16.308 30.485 14.3375 26.3478 13.3851 21.9275C13.3851 21.38 13.5926 20.885 14.6351 20.885H18.2801C19.2176 20.885 19.5551 21.3025 19.9226 22.265C21.6926 27.475 24.7126 32.005 25.9376 32.005C26.4076 32.005 26.6126 31.7975 26.6126 30.625V25.26C26.4576 22.8125 25.1576 22.605 25.1576 21.72C25.1743 21.4866 25.2813 21.2688 25.4558 21.1129C25.6304 20.9571 25.8588 20.8753 26.0926 20.885H31.8226C32.6051 20.885 32.8651 21.275 32.8651 22.2125V29.4525C32.8651 30.235 33.2026 30.495 33.4376 30.495C33.9076 30.495 34.2701 30.235 35.1301 29.375C36.9773 27.1224 38.4865 24.6127 39.6101 21.925C39.725 21.6021 39.9423 21.3258 40.2289 21.138C40.5156 20.9502 40.8558 20.8613 41.1976 20.885H44.8451C45.9376 20.885 46.1701 21.4325 45.9376 22.2125C44.6113 25.1836 42.9703 28.0039 41.0426 30.625C40.6501 31.225 40.4926 31.5375 41.0426 32.24C41.4051 32.7875 42.6826 33.855 43.5426 34.87C44.7924 36.1166 45.8302 37.5589 46.6151 39.14C46.9276 40.155 46.4051 40.675 45.3651 40.675Z" fill="#FACC33"/>
<path d="M39.7446 37.1058L39.7447 37.1101L39.7671 39.7523C39.7671 39.7529 39.7671 39.7535 39.7671 39.7541C39.7662 39.9802 39.5869 40.1607 39.3557 40.1607C39.1239 40.1607 38.9443 39.9792 38.9443 39.7523V35.6143C38.9443 34.8627 38.3332 34.2284 37.5666 34.2284C36.8041 34.2284 36.1889 34.8473 36.1889 35.6143V38.5636C36.1889 38.7905 36.0093 38.972 35.7775 38.972C35.5457 38.972 35.3661 38.7905 35.3661 38.5636V34.4256C35.3661 33.674 34.755 33.0397 33.9884 33.0397C33.2259 33.0397 32.6107 33.6586 32.6107 34.4256V37.3862C32.6107 37.613 32.4311 37.7945 32.1993 37.7945C31.9675 37.7945 31.7878 37.613 31.7878 37.3862V28.8859C31.7878 28.1343 31.1768 27.5 30.4102 27.5C29.6476 27.5 29.0325 28.1189 29.0325 28.8859V42.04C29.0325 42.2068 28.9318 42.3572 28.7675 42.4214C28.5924 42.4785 28.4052 42.4244 28.2985 42.3037C28.2984 42.3036 28.2983 42.3035 28.2982 42.3034L24.7769 38.3007L24.766 38.2883L24.7544 38.2768C24.4992 38.0224 24.1455 37.8842 23.7938 37.8842C23.4344 37.8842 23.0796 38.0201 22.822 38.2768C22.4798 38.6178 22.4664 39.0643 22.5305 39.4003C22.5948 39.7371 22.7518 40.0644 22.8995 40.3163C23.9209 42.1145 25.043 43.8197 26.0316 45.32C26.0609 45.3647 26.0902 45.4094 26.1194 45.4539C26.8319 46.5404 27.4976 47.5556 27.9977 48.4144L27.9985 48.4159C28.3285 48.978 29.0062 50.3687 29.3983 51.1732L29.4206 51.2191L29.5575 51.5H29.8701H40.1771H40.5446L40.6543 51.1493C40.9824 50.1007 41.4409 48.5497 41.8179 47.068C42.1889 45.6096 42.5 44.1489 42.5 43.3184V37.1058C42.5 36.3541 41.889 35.7199 41.1223 35.7199C40.3598 35.7199 39.7446 36.3388 39.7446 37.1058Z" fill="white" stroke="#333333"/>
</svg>
